# Blender v2.81 (sub 16) OBJ File: 'truck_wheel_3.blend'
# www.blender.org
o supersingle_wheel.002
v -0.050000 0.000000 -0.024000
v -0.040000 -0.000000 -0.030000
v -0.050000 -0.012000 -0.020785
v -0.040000 -0.015000 -0.025981
v -0.050000 -0.020785 -0.012000
v -0.040000 -0.025981 -0.015000
v -0.050000 -0.024000 0.000000
v -0.040000 -0.030000 0.000000
v -0.050000 -0.020785 0.012000
v -0.040000 -0.025981 0.015000
v -0.050000 -0.012000 0.020785
v -0.040000 -0.015000 0.025981
v -0.050000 -0.000000 0.024000
v -0.040000 -0.000000 0.030000
v -0.050000 0.012000 0.020785
v -0.040000 0.015000 0.025981
v -0.050000 0.020785 0.012000
v -0.040000 0.025981 0.015000
v -0.050000 0.024000 0.000000
v -0.040000 0.030000 0.000000
v -0.050000 0.020785 -0.012000
v -0.040000 0.025981 -0.015000
v -0.050000 0.012000 -0.020785
v -0.040000 0.015000 -0.025981
v -0.040000 0.090000 0.015000
v -0.040000 0.090000 -0.015000
v -0.040000 -0.090000 -0.015000
v -0.040000 -0.090000 0.015000
v -0.040000 -0.057990 0.070442
v -0.040000 -0.032010 0.085442
v -0.040000 0.057990 -0.070442
v -0.040000 0.032010 -0.085442
v -0.040000 0.032010 0.085442
v -0.040000 0.057990 0.070442
v -0.040000 -0.032010 -0.085442
v -0.040000 -0.057990 -0.070442
v -0.030000 -0.000000 -0.030000
v -0.030000 -0.025981 -0.015000
v -0.030000 -0.025981 0.015000
v -0.030000 -0.000000 0.030000
v -0.030000 0.025981 0.015000
v -0.030000 0.025981 -0.015000
v -0.030000 0.090000 0.015000
v -0.030000 0.090000 -0.015000
v -0.030000 -0.090000 -0.015000
v -0.030000 -0.090000 0.015000
v -0.030000 -0.057990 0.070442
v -0.030000 -0.032010 0.085442
v -0.030000 0.057990 -0.070442
v -0.030000 0.032010 -0.085442
v -0.030000 0.032010 0.085442
v -0.030000 0.057990 0.070442
v -0.030000 -0.032010 -0.085442
v -0.030000 -0.057990 -0.070442
v -0.052500 -0.000000 -0.170000
v -0.052500 0.073760 -0.153165
v -0.052500 0.132911 -0.105993
v -0.052500 0.165738 -0.037829
v -0.052500 0.165738 0.037829
v -0.052500 0.132911 0.105993
v -0.052500 0.073760 0.153165
v -0.052500 0.000000 0.170000
v -0.052500 -0.073760 0.153165
v -0.052500 -0.132911 0.105993
v -0.052500 -0.165738 0.037829
v -0.052500 -0.165738 -0.037829
v -0.052500 -0.132911 -0.105993
v -0.052500 -0.073760 -0.153165
v -0.067500 0.000000 -0.125000
v -0.067500 0.054235 -0.112621
v -0.067500 0.097729 -0.077936
v -0.067500 0.121866 -0.027815
v -0.067500 0.121866 0.027815
v -0.067500 0.097729 0.077936
v -0.067500 0.054235 0.112621
v -0.067500 0.000000 0.125000
v -0.067500 -0.054235 0.112621
v -0.067500 -0.097729 0.077936
v -0.067500 -0.121866 0.027815
v -0.067500 -0.121866 -0.027815
v -0.067500 -0.097729 -0.077936
v -0.067500 -0.054235 -0.112621
v -0.062500 0.000000 -0.095000
v -0.062500 0.041219 -0.085592
v -0.062500 0.074274 -0.059232
v -0.062500 0.092618 -0.021139
v -0.062500 0.092618 0.021139
v -0.062500 0.074274 0.059232
v -0.062500 0.041219 0.085592
v -0.062500 0.000000 0.095000
v -0.062500 -0.041219 0.085592
v -0.062500 -0.074274 0.059232
v -0.062500 -0.092618 0.021139
v -0.062500 -0.092618 -0.021139
v -0.062500 -0.074274 -0.059232
v -0.062500 -0.041219 -0.085592
v -0.062500 0.000000 -0.090000
v -0.062500 0.039050 -0.081087
v -0.062500 0.070365 -0.056114
v -0.062500 0.087744 -0.020027
v -0.062500 0.087744 0.020027
v -0.062500 0.070365 0.056114
v -0.062500 0.039050 0.081087
v -0.062500 0.000000 0.090000
v -0.062500 -0.039050 0.081087
v -0.062500 -0.070365 0.056114
v -0.062500 -0.087744 0.020027
v -0.062500 -0.087744 -0.020027
v -0.062500 -0.070365 -0.056114
v -0.062500 -0.039049 -0.081087
v -0.030000 -0.000000 -0.090000
v -0.030000 0.070365 -0.056114
v -0.030000 0.070365 0.056114
v -0.030000 0.039050 0.081087
v -0.030000 -0.039050 0.081087
v -0.030000 -0.087744 0.020027
v -0.030000 -0.070365 -0.056114
v -0.030000 -0.039049 -0.081087
v -0.030000 0.039050 -0.081087
v -0.030000 0.087744 -0.020027
v -0.030000 0.087744 0.020027
v -0.030000 0.000000 0.090000
v -0.030000 -0.070365 0.056114
v -0.030000 -0.087744 -0.020027
v 0.035000 0.000000 -0.170000
v 0.035000 0.073760 -0.153165
v 0.035000 0.132911 -0.105993
v 0.035000 0.165738 -0.037829
v 0.035000 0.165738 0.037829
v 0.035000 0.132911 0.105993
v 0.035000 0.073760 0.153165
v 0.035000 0.000000 0.170000
v 0.035000 -0.073760 0.153165
v 0.035000 -0.132911 0.105993
v 0.035000 -0.165738 0.037829
v 0.035000 -0.165738 -0.037829
v 0.035000 -0.132911 -0.105993
v 0.035000 -0.073760 -0.153165
v 0.050000 -0.000000 -0.125000
v 0.050000 0.054235 -0.112621
v 0.050000 0.097729 -0.077936
v 0.050000 0.121866 -0.027815
v 0.050000 0.121866 0.027815
v 0.050000 0.097729 0.077936
v 0.050000 0.054235 0.112621
v 0.050000 0.000000 0.125000
v 0.050000 -0.054235 0.112621
v 0.050000 -0.097729 0.077936
v 0.050000 -0.121866 0.027815
v 0.050000 -0.121866 -0.027815
v 0.050000 -0.097729 -0.077936
v 0.050000 -0.054235 -0.112621
vt 0.875000 0.125000
vt 0.875000 0.125000
vt 0.875000 0.125000
vt 0.625001 0.123450
vt 0.625001 0.123450
vt 0.625001 0.123450
vt 0.625001 0.123450
vt 0.625001 0.123450
vt 0.625001 0.123450
vt 0.625001 0.123450
vt 0.625001 0.123450
vt 0.625001 0.123450
vt 0.625001 0.123450
vt 0.625001 0.123450
vt 0.625001 0.123450
vt 0.625001 0.123450
vt 0.625001 0.123450
vt 0.625001 0.123450
vt 0.625001 0.123450
vt 0.625001 0.123450
vt 0.625001 0.123450
vt 0.625001 0.123450
vt 0.625001 0.123450
vt 0.625001 0.123450
vt 0.625001 0.123450
vt 0.625001 0.123450
vt 0.625001 0.123450
vt 0.625001 0.123450
vt 0.625001 0.123450
vt 0.625001 0.123450
vt 0.625001 0.123450
vt 0.625001 0.123450
vt 0.375000 0.125000
vt 0.375000 0.125000
vt 0.375000 0.125000
vt 0.375000 0.125000
vt 0.375000 0.125000
vt 0.375000 0.125000
vt 0.375000 0.125000
vt 0.375000 0.125000
vt 0.375000 0.125000
vt 0.375000 0.125000
vt 0.375000 0.125000
vt 0.375000 0.125000
vt 0.375000 0.125000
vt 0.375000 0.125000
vt 0.375000 0.125000
vt 0.375000 0.125000
vt 0.375000 0.125000
vt 0.375000 0.125000
vt 0.375000 0.125000
vt 0.375000 0.125000
vt 0.375000 0.125000
vt 0.375000 0.125000
vt 0.375000 0.125000
vt 0.375000 0.125000
vt 0.375000 0.125000
vt 0.375000 0.125000
vt 0.375000 0.125000
vt 0.375000 0.125000
vt 0.375000 0.125000
vt 0.875000 0.125000
vt 0.875000 0.125000
vt 0.875000 0.125000
vt 0.875000 0.125000
vt 0.875000 0.125000
vt 0.875000 0.125000
vt 0.875000 0.125000
vt 0.875000 0.125000
vt 0.875000 0.125000
vt 0.625001 0.123450
vt 0.625001 0.123450
vt 0.625001 0.123450
vt 0.625001 0.123450
vt 0.625001 0.123450
vt 0.625001 0.123450
vt 0.625001 0.123450
vt 0.375000 0.125000
vt 0.375000 0.125000
vt 0.375000 0.125000
vt 0.375000 0.125000
vt 0.375000 0.125000
vt 0.375000 0.125000
vt 0.375000 0.125000
vt 0.375000 0.125000
vt 0.375000 0.125000
vt 0.375000 0.125000
vt 0.375000 0.125000
vt 0.375000 0.125000
vt 0.375000 0.125000
vt 0.875000 0.125000
vt 0.875000 0.125000
vt 0.875000 0.125000
vt 0.875000 0.125000
vt 0.875000 0.125000
vt 0.875000 0.125000
vt 0.875000 0.125000
vt 0.875000 0.125000
vt 0.875000 0.125000
vt 0.875000 0.125000
vt 0.875000 0.125000
vt 0.125000 0.125000
vt 0.125000 0.125000
vt 0.125000 0.125000
vt 0.125000 0.125000
vt 0.125000 0.125000
vt 0.125000 0.125000
vt 0.125000 0.125000
vt 0.125000 0.125000
vt 0.125000 0.125000
vt 0.125000 0.125000
vt 0.125000 0.125000
vt 0.125000 0.125000
vt 0.125000 0.125000
vt 0.125000 0.125000
vt 0.125000 0.125000
vt 0.125000 0.125000
vt 0.125000 0.125000
vt 0.125000 0.125000
vt 0.125000 0.125000
vt 0.125000 0.125000
vt 0.125000 0.125000
vt 0.125000 0.125000
vt 0.125000 0.125000
vt 0.125000 0.125000
vt 0.125000 0.125000
vt 0.125000 0.125000
vt 0.125000 0.125000
vt 0.125000 0.125000
vt 0.125000 0.125000
vt 0.125000 0.125000
vt 0.125000 0.125000
vt 0.125000 0.125000
vt 0.125000 0.125000
vt 0.125000 0.125000
vt 0.125000 0.125000
vt 0.125000 0.125000
vt 0.125000 0.125000
vt 0.125000 0.125000
vt 0.125000 0.125000
vt 0.125000 0.125000
vt 0.125000 0.125000
vt 0.125000 0.125000
vt 0.125000 0.125000
vt 0.125000 0.125000
vt 0.125000 0.125000
vt 0.125000 0.125000
vt 0.125000 0.125000
vt 0.125000 0.125000
vt 0.125000 0.125000
vt 0.125000 0.125000
vt 0.125000 0.125000
vt 0.125000 0.125000
vt 0.125000 0.125000
vt 0.125000 0.125000
vt 0.125000 0.125000
vt 0.125000 0.125000
vt 0.125000 0.125000
vt 0.125000 0.125000
vt 0.125000 0.125000
vt 0.125000 0.125000
vt 0.125000 0.125000
vt 0.125000 0.125000
vt 0.125000 0.125000
vt 0.125000 0.125000
vt 0.125000 0.125000
vt 0.125000 0.125000
vt 0.125000 0.125000
vt 0.125000 0.125000
vt 0.875000 0.125000
vt 0.125000 0.125000
vt 0.125000 0.125000
vn -1.0000 0.0000 0.0000
vn 0.0000 -0.8660 0.5000
vn 0.0000 0.0000 1.0000
vn 0.0000 0.8660 -0.5000
vn 0.0000 0.8660 0.5000
vn 0.0000 0.0000 -1.0000
vn -0.0000 -0.8660 -0.5000
vn -0.7556 0.0000 -0.6550
vn -0.8352 -0.2749 -0.4762
vn -0.8352 0.0000 -0.5499
vn -0.5145 -0.4287 -0.7426
vn -0.8352 -0.4762 -0.2749
vn -0.7556 -0.5673 -0.3275
vn -0.8352 -0.5499 0.0000
vn -0.5145 -0.8575 0.0000
vn -0.8352 -0.4762 0.2749
vn -0.7556 -0.5673 0.3275
vn -0.8352 -0.2749 0.4762
vn -0.7556 0.0000 0.6550
vn -0.8352 0.0000 0.5499
vn -0.5145 0.4287 0.7426
vn -0.8352 0.2749 0.4762
vn -0.8352 0.4762 0.2749
vn -0.7556 0.5673 0.3275
vn -0.8352 0.5499 0.0000
vn -0.5145 0.8575 0.0000
vn -0.8352 0.4762 -0.2749
vn -0.7556 0.5673 -0.3275
vn -0.8352 0.2749 -0.4762
vn -0.5145 0.4287 -0.7426
vn -0.5483 0.6538 -0.5214
vn -0.9937 0.1094 -0.0250
vn -0.5483 0.8153 -0.1861
vn -0.5483 0.8153 0.1861
vn -0.9937 0.0877 0.0699
vn -0.5483 0.6538 0.5214
vn -0.5483 0.3628 0.7534
vn -0.9937 0.0487 0.1011
vn -0.5483 0.0000 0.8362
vn -0.9937 0.0000 0.1122
vn -0.5483 -0.3628 0.7534
vn -0.9937 -0.0487 0.1011
vn -0.5483 -0.6538 0.5214
vn -0.9937 -0.0877 0.0699
vn -0.5483 -0.8153 0.1861
vn -0.9937 -0.1094 0.0250
vn -0.5483 -0.8153 -0.1861
vn -0.9937 -0.1094 -0.0250
vn -0.5483 -0.6538 -0.5214
vn -0.9937 -0.0877 -0.0699
vn -0.5483 -0.3628 -0.7534
vn -0.9937 -0.0487 -0.1011
vn -0.5483 0.0000 -0.8362
vn -0.9937 0.0487 -0.1011
vn -0.5483 0.3628 -0.7534
vn -0.7608 0.6327 0.1444
vn -0.6603 0.7322 -0.1671
vn -0.6603 0.7322 0.1671
vn -0.7608 -0.6327 0.1444
vn -0.6603 -0.7322 -0.1671
vn -0.7608 -0.6327 -0.1444
vn -0.6603 0.5871 0.4682
vn -0.7608 0.5074 0.4046
vn -0.6603 -0.5871 -0.4682
vn -0.7608 -0.5074 -0.4046
vn -0.7608 0.2816 0.5847
vn -0.6603 0.3258 0.6766
vn -0.6603 -0.3258 -0.6766
vn -0.7608 -0.2816 -0.5847
vn -0.6603 0.0000 0.7510
vn -0.7608 0.0000 0.6490
vn -0.7608 0.0000 -0.6490
vn -0.6603 0.0000 -0.7510
vn -0.6603 0.3258 -0.6766
vn -0.7608 0.2816 -0.5847
vn -0.7608 -0.2816 0.5847
vn -0.6603 -0.3258 0.6766
vn -0.7608 0.5074 -0.4046
vn -0.6603 0.5871 -0.4682
vn -0.6603 -0.5871 0.4682
vn -0.7608 -0.5074 0.4046
vn -0.7608 0.6327 -0.1444
vn -0.6603 -0.7322 0.1671
vn -0.9937 0.0877 -0.0699
vn -0.9955 -0.0918 0.0209
vn -0.9937 0.1094 0.0250
vn -0.9955 -0.0918 -0.0209
vn -0.9955 -0.0736 -0.0587
vn -0.9955 -0.0408 -0.0848
vn -0.9955 0.0000 -0.0941
vn -0.9955 0.0408 -0.0848
vn -0.9955 0.0736 -0.0587
vn -0.9955 0.0918 -0.0209
vn -0.9955 0.0736 0.0587
vn -0.9955 0.0408 0.0848
vn -0.9937 0.0000 -0.1122
vn -0.9955 0.0000 0.0941
vn -0.9955 -0.0736 0.0587
vn 0.5483 0.8153 -0.1861
vn 0.9832 0.1425 -0.1137
vn 0.5483 0.6538 -0.5214
vn 0.5483 0.8153 0.1861
vn 0.9832 0.1777 -0.0406
vn 0.5483 0.6538 0.5214
vn 0.9832 0.1777 0.0406
vn 0.5483 0.3628 0.7534
vn 0.9832 0.1425 0.1137
vn 0.5483 0.0000 0.8362
vn 0.9832 0.0791 0.1642
vn 0.5483 -0.3628 0.7534
vn 0.9832 0.0000 0.1823
vn 0.5483 -0.6538 0.5214
vn 0.9832 -0.0791 0.1642
vn 0.9832 -0.1777 0.0406
vn 0.9832 -0.1425 0.1137
vn 0.5483 -0.8153 -0.1861
vn 0.5483 -0.8153 0.1861
vn 0.5483 -0.6538 -0.5214
vn 0.9832 -0.1777 -0.0406
vn 0.5483 -0.3628 -0.7534
vn 0.9832 -0.1425 -0.1137
vn 0.5483 0.0000 -0.8362
vn 0.9832 -0.0791 -0.1642
vn 0.5483 0.3628 -0.7534
vn 0.9832 0.0000 -0.1823
vn 0.9832 0.0791 -0.1642
vn -0.5145 -0.4287 0.7426
vn -0.9955 0.0918 0.0209
vn -0.9955 -0.0408 0.0848
s off
f 11/1/1 15/2/1 23/3/1
f 28/4/1 6/5/1 27/6/1
f 22/7/1 25/8/1 26/9/1
f 34/10/1 14/11/1 33/12/1
f 10/13/1 30/14/1 14/11/1
f 2/15/1 31/16/1 32/17/1
f 2/15/1 36/18/1 6/5/1
f 54/19/2 6/5/2 36/18/2
f 25/8/3 41/20/3 43/21/3
f 37/22/4 35/23/4 2/15/4
f 40/24/2 33/12/2 14/11/2
f 22/7/5 49/25/5 31/16/5
f 6/5/6 45/26/6 27/6/6
f 48/27/5 14/11/5 30/14/5
f 32/17/7 37/22/7 2/15/7
f 28/4/3 39/28/3 10/13/3
f 39/28/7 29/29/7 10/13/7
f 26/9/6 42/30/6 22/7/6
f 52/31/4 18/32/4 34/10/4
f 97/33/1 84/34/1 83/35/1
f 98/36/1 85/37/1 84/34/1
f 99/38/1 86/39/1 85/37/1
f 86/39/1 101/40/1 87/41/1
f 87/41/1 102/42/1 88/43/1
f 88/43/1 103/44/1 89/45/1
f 103/44/1 90/46/1 89/45/1
f 104/47/1 91/48/1 90/46/1
f 105/49/1 92/50/1 91/48/1
f 106/51/1 93/52/1 92/50/1
f 107/53/1 94/54/1 93/52/1
f 108/55/1 95/56/1 94/54/1
f 109/57/1 96/58/1 95/56/1
f 96/58/1 97/33/1 83/35/1
f 116/59/1 115/60/1 121/61/1
f 23/3/1 1/62/1 3/63/1
f 3/63/1 5/64/1 23/3/1
f 5/64/1 7/65/1 23/3/1
f 7/65/1 9/66/1 11/1/1
f 11/1/1 13/67/1 15/2/1
f 15/2/1 17/68/1 19/69/1
f 19/69/1 21/70/1 15/2/1
f 21/70/1 23/3/1 15/2/1
f 7/65/1 11/1/1 23/3/1
f 28/4/1 10/13/1 6/5/1
f 22/7/1 18/32/1 25/8/1
f 34/10/1 18/32/1 14/11/1
f 10/13/1 29/29/1 30/14/1
f 2/15/1 22/7/1 31/16/1
f 2/15/1 35/23/1 36/18/1
f 54/19/2 38/71/2 6/5/2
f 25/8/3 18/32/3 41/20/3
f 37/22/4 53/72/4 35/23/4
f 40/24/2 51/73/2 33/12/2
f 22/7/5 42/30/5 49/25/5
f 6/5/6 38/71/6 45/26/6
f 48/27/5 40/24/5 14/11/5
f 32/17/7 50/74/7 37/22/7
f 28/4/3 46/75/3 39/28/3
f 39/28/7 47/76/7 29/29/7
f 26/9/6 44/77/6 42/30/6
f 52/31/4 41/20/4 18/32/4
f 97/33/1 98/36/1 84/34/1
f 98/36/1 99/38/1 85/37/1
f 99/38/1 100/78/1 86/39/1
f 86/39/1 100/78/1 101/40/1
f 87/41/1 101/40/1 102/42/1
f 88/43/1 102/42/1 103/44/1
f 103/44/1 104/47/1 90/46/1
f 104/47/1 105/49/1 91/48/1
f 105/49/1 106/51/1 92/50/1
f 106/51/1 107/53/1 93/52/1
f 107/53/1 108/55/1 94/54/1
f 108/55/1 109/57/1 95/56/1
f 109/57/1 110/79/1 96/58/1
f 96/58/1 110/79/1 97/33/1
f 112/80/1 119/81/1 111/82/1
f 111/82/1 118/83/1 117/84/1
f 117/84/1 124/85/1 116/59/1
f 116/59/1 123/86/1 115/60/1
f 115/60/1 122/87/1 121/61/1
f 122/87/1 114/88/1 121/61/1
f 114/88/1 113/89/1 121/61/1
f 121/61/1 120/90/1 112/80/1
f 112/80/1 111/82/1 121/61/1
f 111/82/1 117/84/1 121/61/1
f 117/84/1 116/59/1 121/61/1
s 1
f 2/91/8 3/63/9 1/62/10
f 4/92/11 5/64/12 3/63/9
f 6/93/13 7/65/14 5/64/12
f 8/94/15 9/66/16 7/65/14
f 10/95/17 11/1/18 9/66/16
f 11/1/18 14/96/19 13/67/20
f 13/67/20 16/97/21 15/2/22
f 16/97/21 17/68/23 15/2/22
f 18/98/24 19/69/25 17/68/23
f 20/99/26 21/70/27 19/69/25
f 22/100/28 23/3/29 21/70/27
f 24/101/30 1/62/10 23/3/29
f 57/102/31 72/103/32 58/104/33
f 72/103/32 59/105/34 58/104/33
f 59/105/34 74/106/35 60/107/36
f 74/106/35 61/108/37 60/107/36
f 75/109/38 62/110/39 61/108/37
f 76/111/40 63/112/41 62/110/39
f 77/113/42 64/114/43 63/112/41
f 78/115/44 65/116/45 64/114/43
f 79/117/46 66/118/47 65/116/45
f 80/119/48 67/120/49 66/118/47
f 81/121/50 68/122/51 67/120/49
f 82/123/52 55/124/53 68/122/51
f 55/124/53 70/125/54 56/126/55
f 70/125/54 57/102/31 56/126/55
f 108/55/56 116/59/57 124/85/58
f 100/78/59 121/61/60 101/40/61
f 108/55/56 117/84/62 109/57/63
f 101/40/61 113/89/64 102/42/65
f 110/79/66 117/84/62 118/83/67
f 102/42/65 114/88/68 103/44/69
f 110/79/66 111/82/70 97/33/71
f 104/47/72 114/88/68 122/87/73
f 104/47/72 115/60/74 105/49/75
f 98/36/76 111/82/70 119/81/77
f 106/51/78 115/60/74 123/86/79
f 98/36/76 112/80/80 99/38/81
f 106/51/78 116/59/57 107/53/82
f 99/38/81 120/90/83 100/78/59
f 71/127/84 86/128/85 72/103/32
f 86/128/85 73/129/86 72/103/32
f 87/130/87 74/106/35 73/129/86
f 88/131/88 75/109/38 74/106/35
f 89/132/89 76/111/40 75/109/38
f 90/133/90 77/113/42 76/111/40
f 91/134/91 78/115/44 77/113/42
f 92/135/92 79/117/46 78/115/44
f 93/136/93 80/119/48 79/117/46
f 80/119/48 95/137/94 81/121/50
f 95/137/94 82/123/52 81/121/50
f 96/138/95 69/139/96 82/123/52
f 83/140/97 70/125/54 69/139/96
f 70/125/54 85/141/98 71/127/84
f 128/142/99 141/143/100 127/144/101
f 129/145/102 142/146/103 128/142/99
f 130/147/104 143/148/105 129/145/102
f 131/149/106 144/150/107 130/147/104
f 132/151/108 145/152/109 131/149/106
f 133/153/110 146/154/111 132/151/108
f 134/155/112 147/156/113 133/153/110
f 134/155/112 149/157/114 148/158/115
f 136/159/116 149/157/114 135/160/117
f 137/161/118 150/162/119 136/159/116
f 138/163/120 151/164/121 137/161/118
f 125/165/122 152/166/123 138/163/120
f 126/167/124 139/168/125 125/165/122
f 126/167/124 141/143/100 140/169/126
f 128/142/99 57/102/31 58/104/33
f 129/145/102 58/104/33 59/105/34
f 130/147/104 59/105/34 60/107/36
f 131/149/106 60/107/36 61/108/37
f 132/151/108 61/108/37 62/110/39
f 133/153/110 62/110/39 63/112/41
f 134/155/112 63/112/41 64/114/43
f 135/160/117 64/114/43 65/116/45
f 136/159/116 65/116/45 66/118/47
f 137/161/118 66/118/47 67/120/49
f 138/163/120 67/120/49 68/122/51
f 55/124/53 138/163/120 68/122/51
f 126/167/124 55/124/53 56/126/55
f 127/144/101 56/126/55 57/102/31
f 143/148/105 147/156/113 151/164/121
f 2/91/8 4/92/11 3/63/9
f 4/92/11 6/93/13 5/64/12
f 6/93/13 8/94/15 7/65/14
f 8/94/15 10/95/17 9/66/16
f 10/95/17 12/170/127 11/1/18
f 11/1/18 12/170/127 14/96/19
f 13/67/20 14/96/19 16/97/21
f 16/97/21 18/98/24 17/68/23
f 18/98/24 20/99/26 19/69/25
f 20/99/26 22/100/28 21/70/27
f 22/100/28 24/101/30 23/3/29
f 24/101/30 2/91/8 1/62/10
f 57/102/31 71/127/84 72/103/32
f 72/103/32 73/129/86 59/105/34
f 59/105/34 73/129/86 74/106/35
f 74/106/35 75/109/38 61/108/37
f 75/109/38 76/111/40 62/110/39
f 76/111/40 77/113/42 63/112/41
f 77/113/42 78/115/44 64/114/43
f 78/115/44 79/117/46 65/116/45
f 79/117/46 80/119/48 66/118/47
f 80/119/48 81/121/50 67/120/49
f 81/121/50 82/123/52 68/122/51
f 82/123/52 69/139/96 55/124/53
f 55/124/53 69/139/96 70/125/54
f 70/125/54 71/127/84 57/102/31
f 108/55/56 107/53/82 116/59/57
f 100/78/59 120/90/83 121/61/60
f 108/55/56 124/85/58 117/84/62
f 101/40/61 121/61/60 113/89/64
f 110/79/66 109/57/63 117/84/62
f 102/42/65 113/89/64 114/88/68
f 110/79/66 118/83/67 111/82/70
f 104/47/72 103/44/69 114/88/68
f 104/47/72 122/87/73 115/60/74
f 98/36/76 97/33/71 111/82/70
f 106/51/78 105/49/75 115/60/74
f 98/36/76 119/81/77 112/80/80
f 106/51/78 123/86/79 116/59/57
f 99/38/81 112/80/80 120/90/83
f 71/127/84 85/141/98 86/128/85
f 86/128/85 87/130/87 73/129/86
f 87/130/87 88/131/88 74/106/35
f 88/131/88 89/132/89 75/109/38
f 89/132/89 90/133/90 76/111/40
f 90/133/90 91/134/91 77/113/42
f 91/134/91 92/135/92 78/115/44
f 92/135/92 93/136/93 79/117/46
f 93/136/93 94/171/128 80/119/48
f 80/119/48 94/171/128 95/137/94
f 95/137/94 96/138/95 82/123/52
f 96/138/95 83/140/97 69/139/96
f 83/140/97 84/172/129 70/125/54
f 70/125/54 84/172/129 85/141/98
f 128/142/99 142/146/103 141/143/100
f 129/145/102 143/148/105 142/146/103
f 130/147/104 144/150/107 143/148/105
f 131/149/106 145/152/109 144/150/107
f 132/151/108 146/154/111 145/152/109
f 133/153/110 147/156/113 146/154/111
f 134/155/112 148/158/115 147/156/113
f 134/155/112 135/160/117 149/157/114
f 136/159/116 150/162/119 149/157/114
f 137/161/118 151/164/121 150/162/119
f 138/163/120 152/166/123 151/164/121
f 125/165/122 139/168/125 152/166/123
f 126/167/124 140/169/126 139/168/125
f 126/167/124 127/144/101 141/143/100
f 128/142/99 127/144/101 57/102/31
f 129/145/102 128/142/99 58/104/33
f 130/147/104 129/145/102 59/105/34
f 131/149/106 130/147/104 60/107/36
f 132/151/108 131/149/106 61/108/37
f 133/153/110 132/151/108 62/110/39
f 134/155/112 133/153/110 63/112/41
f 135/160/117 134/155/112 64/114/43
f 136/159/116 135/160/117 65/116/45
f 137/161/118 136/159/116 66/118/47
f 138/163/120 137/161/118 67/120/49
f 55/124/53 125/165/122 138/163/120
f 126/167/124 125/165/122 55/124/53
f 127/144/101 126/167/124 56/126/55
f 139/168/125 140/169/126 141/143/100
f 141/143/100 142/146/103 139/168/125
f 142/146/103 143/148/105 139/168/125
f 143/148/105 144/150/107 147/156/113
f 144/150/107 145/152/109 147/156/113
f 145/152/109 146/154/111 147/156/113
f 147/156/113 148/158/115 149/157/114
f 149/157/114 150/162/119 151/164/121
f 151/164/121 152/166/123 139/168/125
f 147/156/113 149/157/114 151/164/121
f 151/164/121 139/168/125 143/148/105
