o steer_wheel
v -0.030000 0.057990 -0.070442
v -0.035000 -0.000000 -0.170000
v -0.035000 0.073760 -0.153165
v -0.035000 0.132911 -0.105993
v -0.035000 0.165738 -0.037829
v -0.035000 0.165738 0.037829
v -0.035000 0.132911 0.105993
v -0.035000 0.073760 0.153165
v -0.035000 0.000000 0.170000
v -0.035000 -0.073760 0.153165
v -0.035000 -0.132911 0.105993
v -0.035000 -0.165738 0.037829
v -0.035000 -0.165738 -0.037829
v -0.035000 -0.132911 -0.105993
v -0.035000 -0.073760 -0.153165
v -0.050000 0.000000 -0.125000
v -0.050000 0.054235 -0.112621
v -0.050000 0.097729 -0.077936
v -0.050000 0.121866 -0.027815
v -0.050000 0.121866 0.027815
v -0.050000 0.097729 0.077936
v -0.050000 0.054235 0.112621
v -0.050000 0.000000 0.125000
v -0.050000 -0.054235 0.112621
v -0.050000 -0.097729 0.077936
v -0.050000 -0.121866 0.027815
v -0.050000 -0.121866 -0.027815
v -0.050000 -0.097729 -0.077936
v -0.050000 -0.054235 -0.112621
v -0.045000 0.000000 -0.095000
v -0.045000 0.041219 -0.085592
v -0.045000 0.074274 -0.059232
v -0.045000 0.092618 -0.021139
v -0.045000 0.092618 0.021139
v -0.045000 0.074274 0.059232
v -0.045000 0.041219 0.085592
v -0.045000 0.000000 0.095000
v -0.045000 -0.041219 0.085592
v -0.045000 -0.074274 0.059232
v -0.045000 -0.092618 0.021139
v -0.045000 -0.092618 -0.021139
v -0.045000 -0.074274 -0.059232
v -0.045000 -0.041219 -0.085592
v -0.045000 0.000000 -0.090000
v -0.045000 0.039050 -0.081087
v -0.045000 0.070365 -0.056114
v -0.045000 0.087744 -0.020027
v -0.045000 0.087744 0.020027
v -0.045000 0.070365 0.056114
v -0.045000 0.039050 0.081087
v -0.045000 0.000000 0.090000
v -0.045000 -0.039050 0.081087
v -0.045000 -0.070365 0.056114
v -0.045000 -0.087744 0.020027
v -0.045000 -0.087744 -0.020027
v -0.045000 -0.070365 -0.056114
v -0.045000 -0.039049 -0.081087
v -0.030000 -0.000000 -0.090000
v -0.030000 0.070365 -0.056114
v -0.030000 0.070365 0.056114
v -0.030000 0.039050 0.081087
v -0.030000 -0.039050 0.081087
v -0.030000 -0.087744 0.020027
v -0.030000 -0.070365 -0.056114
v -0.030000 -0.039049 -0.081087
v -0.030000 0.039050 -0.081087
v -0.030000 0.087744 -0.020027
v -0.030000 0.087744 0.020027
v -0.030000 0.000000 0.090000
v -0.030000 -0.070365 0.056114
v -0.030000 -0.087744 -0.020027
v 0.035000 0.000000 -0.170000
v 0.035000 0.073760 -0.153165
v 0.035000 0.132911 -0.105993
v 0.035000 0.165738 -0.037829
v 0.035000 0.165738 0.037829
v 0.035000 0.132911 0.105993
v 0.035000 0.073760 0.153165
v 0.035000 0.000000 0.170000
v 0.035000 -0.073760 0.153165
v 0.035000 -0.132911 0.105993
v 0.035000 -0.165738 0.037829
v 0.035000 -0.165738 -0.037829
v 0.035000 -0.132911 -0.105993
v 0.035000 -0.073760 -0.153165
v 0.050000 -0.000000 -0.125000
v 0.050000 0.054235 -0.112621
v 0.050000 0.097729 -0.077936
v 0.050000 0.121866 -0.027815
v 0.050000 0.121866 0.027815
v 0.050000 0.097729 0.077936
v 0.050000 0.054235 0.112621
v 0.050000 0.000000 0.125000
v 0.050000 -0.054235 0.112621
v 0.050000 -0.097729 0.077936
v 0.050000 -0.121866 0.027815
v 0.050000 -0.121866 -0.027815
v 0.050000 -0.097729 -0.077936
v 0.050000 -0.054235 -0.112621
v -0.055000 0.027335 0.056761
v -0.055000 0.049255 0.039280
v -0.055000 -0.027335 -0.056761
v -0.055000 -0.049255 -0.039280
v -0.055000 0.000000 -0.063000
v -0.055000 0.061420 0.014019
v -0.055000 0.061420 -0.014019
v -0.055000 0.027335 -0.056761
v -0.055000 0.049255 -0.039280
v -0.055000 0.000000 0.063000
v -0.055000 -0.027335 0.056761
v -0.055000 -0.049255 0.039280
v -0.055000 -0.061420 0.014019
v -0.055000 -0.061420 -0.014019
vt 0.375000 0.125000
vt 0.375000 0.125000
vt 0.375000 0.125000
vt 0.375000 0.125000
vt 0.375000 0.125000
vt 0.375000 0.125000
vt 0.375000 0.125000
vt 0.375000 0.125000
vt 0.375000 0.125000
vt 0.375000 0.125000
vt 0.375000 0.125000
vt 0.375000 0.125000
vt 0.375000 0.125000
vt 0.375000 0.125000
vt 0.375000 0.125000
vt 0.375000 0.125000
vt 0.375000 0.125000
vt 0.375000 0.125000
vt 0.375000 0.125000
vt 0.375000 0.125000
vt 0.375000 0.125000
vt 0.375000 0.125000
vt 0.375000 0.125000
vt 0.375000 0.125000
vt 0.375000 0.125000
vt 0.375000 0.125000
vt 0.375000 0.125000
vt 0.375000 0.125000
vt 0.375000 0.125000
vt 0.375000 0.125000
vt 0.375000 0.125000
vt 0.375000 0.125000
vt 0.375000 0.125000
vt 0.375000 0.125000
vt 0.375000 0.125000
vt 0.375000 0.125000
vt 0.375000 0.125000
vt 0.375000 0.125000
vt 0.375000 0.125000
vt 0.375000 0.125000
vt 0.375000 0.125000
vt 0.375000 0.125000
vt 0.125000 0.125000
vt 0.125000 0.125000
vt 0.125000 0.125000
vt 0.125000 0.125000
vt 0.125000 0.125000
vt 0.125000 0.125000
vt 0.125000 0.125000
vt 0.125000 0.125000
vt 0.125000 0.125000
vt 0.125000 0.125000
vt 0.125000 0.125000
vt 0.125000 0.125000
vt 0.125000 0.125000
vt 0.125000 0.125000
vt 0.125000 0.125000
vt 0.125000 0.125000
vt 0.125000 0.125000
vt 0.125000 0.125000
vt 0.125000 0.125000
vt 0.125000 0.125000
vt 0.125000 0.125000
vt 0.125000 0.125000
vt 0.125000 0.125000
vt 0.125000 0.125000
vt 0.375000 0.125000
vt 0.375000 0.125000
vt 0.375000 0.125000
vt 0.375000 0.125000
vt 0.375000 0.125000
vt 0.375000 0.125000
vt 0.375000 0.125000
vt 0.375000 0.125000
vt 0.375000 0.125000
vt 0.375000 0.125000
vt 0.375000 0.125000
vt 0.375000 0.125000
vt 0.375000 0.125000
vt 0.375000 0.125000
vt 0.125000 0.125000
vt 0.125000 0.125000
vt 0.125000 0.125000
vt 0.125000 0.125000
vt 0.125000 0.125000
vt 0.125000 0.125000
vt 0.125000 0.125000
vt 0.125000 0.125000
vt 0.125000 0.125000
vt 0.125000 0.125000
vt 0.125000 0.125000
vt 0.125000 0.125000
vt 0.125000 0.125000
vt 0.125000 0.125000
vt 0.125000 0.125000
vt 0.125000 0.125000
vt 0.125000 0.125000
vt 0.125000 0.125000
vt 0.125000 0.125000
vt 0.125000 0.125000
vt 0.125000 0.125000
vt 0.125000 0.125000
vt 0.125000 0.125000
vt 0.125000 0.125000
vt 0.125000 0.125000
vt 0.125000 0.125000
vt 0.125000 0.125000
vt 0.125000 0.125000
vt 0.125000 0.125000
vt 0.125000 0.125000
vt 0.125000 0.125000
vt 0.125000 0.125000
vt 0.125000 0.125000
vt 0.125000 0.125000
vt 0.125000 0.125000
vt 0.125000 0.125000
vt 0.125000 0.125000
vt 0.125000 0.125000
vt 0.125000 0.125000
vt 0.125000 0.125000
vt 0.125000 0.125000
vt 0.125000 0.125000
vt 0.125000 0.125000
vt 0.125000 0.125000
vt 0.125000 0.125000
vt 0.125000 0.125000
vn -1.0000 0.0000 0.0000
vn -0.5483 0.6538 -0.5214
vn -0.9937 0.1094 -0.0250
vn -0.5483 0.8153 -0.1861
vn -0.5483 0.8153 0.1861
vn -0.9937 0.0877 0.0699
vn -0.5483 0.6538 0.5214
vn -0.5483 0.3628 0.7534
vn -0.9937 0.0000 0.1122
vn -0.5483 0.0000 0.8362
vn -0.5483 -0.3628 0.7534
vn -0.9937 -0.0487 0.1011
vn -0.5483 -0.6538 0.5214
vn -0.9937 -0.1094 0.0250
vn -0.5483 -0.8153 0.1861
vn -0.5483 -0.8153 -0.1861
vn -0.9937 -0.1094 -0.0250
vn -0.5483 -0.6538 -0.5214
vn -0.9937 -0.0877 -0.0699
vn -0.5483 -0.3628 -0.7534
vn -0.9937 -0.0487 -0.1011
vn -0.5483 0.0000 -0.8362
vn -0.9937 0.0000 -0.1122
vn -0.5483 0.3628 -0.7534
vn -0.9937 0.0487 -0.1011
vn -0.7608 0.6327 -0.1444
vn -0.8668 0.4862 0.1110
vn -0.7608 0.6327 0.1444
vn -0.7608 -0.6327 0.1444
vn -0.8668 -0.4862 -0.1110
vn -0.7608 -0.6327 -0.1444
vn -0.8668 0.3899 0.3109
vn -0.7608 0.5074 0.4046
vn -0.8668 -0.3899 -0.3109
vn -0.7608 -0.5074 -0.4046
vn -0.7608 0.2816 0.5847
vn -0.8668 0.2164 0.4493
vn -0.8668 -0.2164 -0.4493
vn -0.7608 -0.2816 -0.5847
vn -0.8668 0.0000 0.4987
vn -0.7608 0.0000 0.6490
vn -0.8668 0.0000 -0.4987
vn -0.7608 0.0000 -0.6490
vn -0.8668 0.2164 -0.4493
vn -0.7608 0.2816 -0.5847
vn -0.8668 -0.2164 0.4493
vn -0.7608 -0.2816 0.5847
vn -0.8668 0.3899 -0.3109
vn -0.7608 0.5074 -0.4046
vn -0.7608 -0.5074 0.4046
vn -0.8668 -0.3899 0.3109
vn -0.8668 0.4862 -0.1110
vn -0.8668 -0.4862 0.1110
vn -0.9937 0.0877 -0.0699
vn -0.9955 -0.0918 0.0209
vn -0.9937 0.1094 0.0250
vn -0.9955 -0.0918 -0.0209
vn -0.9955 -0.0736 -0.0587
vn -0.9937 0.0487 0.1011
vn -0.9955 -0.0408 -0.0848
vn -0.9955 0.0000 -0.0941
vn -0.9955 0.0408 -0.0848
vn -0.9937 -0.0877 0.0699
vn -0.9955 0.0736 -0.0587
vn -0.9955 0.0918 -0.0209
vn -0.9955 0.0918 0.0209
vn -0.9955 0.0408 0.0848
vn -0.9955 0.0000 0.0941
vn -0.9955 -0.0408 0.0848
vn -0.9128 0.3980 -0.0908
vn 0.5483 0.8153 -0.1861
vn 0.9832 0.1425 -0.1137
vn 0.5483 0.6538 -0.5214
vn 0.5483 0.8153 0.1861
vn 0.9832 0.1777 -0.0406
vn 0.5483 0.6538 0.5214
vn 0.9832 0.1777 0.0406
vn 0.5483 0.3628 0.7534
vn 0.9832 0.1425 0.1137
vn 0.5483 0.0000 0.8362
vn 0.9832 0.0791 0.1642
vn 0.5483 -0.3628 0.7534
vn 0.9832 0.0000 0.1823
vn 0.5483 -0.6538 0.5214
vn 0.9832 -0.0791 0.1642
vn 0.9832 -0.1777 0.0406
vn 0.9832 -0.1425 0.1137
vn 0.5483 -0.8153 -0.1861
vn 0.5483 -0.8153 0.1861
vn 0.5483 -0.6538 -0.5214
vn 0.9832 -0.1777 -0.0406
vn 0.5483 -0.3628 -0.7534
vn 0.9832 -0.1425 -0.1137
vn 0.5483 0.0000 -0.8362
vn 0.9832 -0.0791 -0.1642
vn 0.5483 0.3628 -0.7534
vn 0.9832 0.0000 -0.1823
vn 0.9832 0.0791 -0.1642
vn -0.9128 0.3980 0.0908
vn -0.9128 0.3192 0.2545
vn -0.9128 0.1771 0.3678
vn -0.9128 0.0000 0.4082
vn -0.9128 -0.1771 -0.3678
vn -0.9128 -0.1771 0.3678
vn -0.9128 0.0000 -0.4082
vn -0.9128 -0.3192 0.2545
vn -0.9128 -0.3980 0.0908
vn -0.9128 0.1771 -0.3678
vn -0.9128 -0.3980 -0.0908
vn -0.9128 0.3192 -0.2545
vn -0.9128 -0.3192 -0.2545
vn -0.9955 -0.0736 0.0587
vn -0.9955 0.0736 0.0587
s off
f 44/1/1 31/2/1 30/3/1
f 45/4/1 32/5/1 31/2/1
f 46/6/1 33/7/1 32/5/1
f 33/7/1 48/8/1 34/9/1
f 34/9/1 49/10/1 35/11/1
f 35/11/1 50/12/1 36/13/1
f 50/12/1 37/14/1 36/13/1
f 51/15/1 38/16/1 37/14/1
f 52/17/1 39/18/1 38/16/1
f 53/19/1 40/20/1 39/18/1
f 54/21/1 41/22/1 40/20/1
f 55/23/1 42/24/1 41/22/1
f 56/25/1 43/26/1 42/24/1
f 43/26/1 44/1/1 30/3/1
f 103/27/1 110/28/1 105/29/1
f 44/1/1 45/4/1 31/2/1
f 45/4/1 46/6/1 32/5/1
f 46/6/1 47/30/1 33/7/1
f 33/7/1 47/30/1 48/8/1
f 34/9/1 48/8/1 49/10/1
f 35/11/1 49/10/1 50/12/1
f 50/12/1 51/15/1 37/14/1
f 51/15/1 52/17/1 38/16/1
f 52/17/1 53/19/1 39/18/1
f 53/19/1 54/21/1 40/20/1
f 54/21/1 55/23/1 41/22/1
f 55/23/1 56/25/1 42/24/1
f 56/25/1 57/31/1 43/26/1
f 43/26/1 57/31/1 44/1/1
f 108/32/1 107/33/1 104/34/1
f 104/34/1 102/35/1 103/27/1
f 103/27/1 113/36/1 112/37/1
f 112/37/1 111/38/1 110/28/1
f 110/28/1 109/39/1 105/29/1
f 109/39/1 100/40/1 105/29/1
f 100/40/1 101/41/1 105/29/1
f 105/29/1 106/42/1 108/32/1
f 108/32/1 104/34/1 105/29/1
f 104/34/1 103/27/1 105/29/1
f 103/27/1 112/37/1 110/28/1
s 1
f 4/43/2 19/44/3 5/45/4
f 19/44/3 6/46/5 5/45/4
f 6/46/5 21/47/6 7/48/7
f 21/47/6 8/49/8 7/48/7
f 8/49/8 23/50/9 9/51/10
f 23/50/9 10/52/11 9/51/10
f 24/53/12 11/54/13 10/52/11
f 11/54/13 26/55/14 12/56/15
f 26/55/14 13/57/16 12/56/15
f 27/58/17 14/59/18 13/57/16
f 28/60/19 15/61/20 14/59/18
f 29/62/21 2/63/22 15/61/20
f 16/64/23 3/65/24 2/63/22
f 17/66/25 4/43/2 3/65/24
f 54/21/26 71/67/27 55/23/28
f 47/30/29 68/68/30 48/8/31
f 55/23/28 64/69/32 56/25/33
f 48/8/31 60/70/34 49/10/35
f 57/31/36 64/69/32 65/71/37
f 49/10/35 61/72/38 50/12/39
f 57/31/36 58/73/40 44/1/41
f 50/12/39 69/74/42 51/15/43
f 51/15/43 62/75/44 52/17/45
f 44/1/41 66/76/46 45/4/47
f 52/17/45 70/77/48 53/19/49
f 46/6/50 66/76/46 59/78/51
f 53/19/49 63/79/52 54/21/26
f 47/30/29 59/78/51 67/80/53
f 18/81/54 33/82/55 19/44/3
f 33/82/55 20/83/56 19/44/3
f 34/84/57 21/47/6 20/83/56
f 35/85/58 22/86/59 21/47/6
f 36/87/60 23/50/9 22/86/59
f 37/88/61 24/53/12 23/50/9
f 38/89/62 25/90/63 24/53/12
f 39/91/64 26/55/14 25/90/63
f 40/92/65 27/58/17 26/55/14
f 41/93/66 28/60/19 27/58/17
f 28/60/19 43/94/67 29/62/21
f 43/94/67 16/64/23 29/62/21
f 30/95/68 17/66/25 16/64/23
f 31/96/69 18/81/54 17/66/25
f 59/78/51 106/42/70 67/80/53
f 75/97/71 88/98/72 74/99/73
f 76/100/74 89/101/75 75/97/71
f 77/102/76 90/103/77 76/100/74
f 78/104/78 91/105/79 77/102/76
f 79/106/80 92/107/81 78/104/78
f 80/108/82 93/109/83 79/106/80
f 81/110/84 94/111/85 80/108/82
f 81/110/84 96/112/86 95/113/87
f 83/114/88 96/112/86 82/115/89
f 84/116/90 97/117/91 83/114/88
f 85/118/92 98/119/93 84/116/90
f 72/120/94 99/121/95 85/118/92
f 73/122/96 86/123/97 72/120/94
f 73/122/96 88/98/72 87/124/98
f 75/97/71 4/43/2 5/45/4
f 76/100/74 5/45/4 6/46/5
f 77/102/76 6/46/5 7/48/7
f 78/104/78 7/48/7 8/49/8
f 79/106/80 8/49/8 9/51/10
f 80/108/82 9/51/10 10/52/11
f 81/110/84 10/52/11 11/54/13
f 82/115/89 11/54/13 12/56/15
f 83/114/88 12/56/15 13/57/16
f 84/116/90 13/57/16 14/59/18
f 85/118/92 14/59/18 15/61/20
f 2/63/22 85/118/92 15/61/20
f 73/122/96 2/63/22 3/65/24
f 74/99/73 3/65/24 4/43/2
f 90/103/77 94/111/85 98/119/93
f 60/70/34 105/29/99 101/41/100
f 60/70/34 100/40/101 61/72/38
f 61/72/38 109/39/102 69/74/42
f 64/69/32 102/35/103 65/71/37
f 62/75/44 109/39/102 110/28/104
f 65/71/37 104/34/105 58/73/40
f 62/75/44 111/38/106 70/77/48
f 63/79/52 111/38/106 112/37/107
f 67/80/53 105/29/99 68/68/30
f 58/73/40 107/33/108 66/76/46
f 63/79/52 113/36/109 71/67/27
f 66/76/46 108/32/110 59/78/51
f 64/69/32 113/36/109 103/27/111
f 4/43/2 18/81/54 19/44/3
f 19/44/3 20/83/56 6/46/5
f 6/46/5 20/83/56 21/47/6
f 21/47/6 22/86/59 8/49/8
f 8/49/8 22/86/59 23/50/9
f 23/50/9 24/53/12 10/52/11
f 24/53/12 25/90/63 11/54/13
f 11/54/13 25/90/63 26/55/14
f 26/55/14 27/58/17 13/57/16
f 27/58/17 28/60/19 14/59/18
f 28/60/19 29/62/21 15/61/20
f 29/62/21 16/64/23 2/63/22
f 16/64/23 17/66/25 3/65/24
f 17/66/25 18/81/54 4/43/2
f 54/21/26 63/79/52 71/67/27
f 47/30/29 67/80/53 68/68/30
f 55/23/28 71/67/27 64/69/32
f 48/8/31 68/68/30 60/70/34
f 57/31/36 56/25/33 64/69/32
f 49/10/35 60/70/34 61/72/38
f 57/31/36 65/71/37 58/73/40
f 50/12/39 61/72/38 69/74/42
f 51/15/43 69/74/42 62/75/44
f 44/1/41 58/73/40 66/76/46
f 52/17/45 62/75/44 70/77/48
f 46/6/50 45/4/47 66/76/46
f 53/19/49 70/77/48 63/79/52
f 47/30/29 46/6/50 59/78/51
f 18/81/54 32/125/112 33/82/55
f 33/82/55 34/84/57 20/83/56
f 34/84/57 35/85/58 21/47/6
f 35/85/58 36/87/60 22/86/59
f 36/87/60 37/88/61 23/50/9
f 37/88/61 38/89/62 24/53/12
f 38/89/62 39/91/64 25/90/63
f 39/91/64 40/92/65 26/55/14
f 40/92/65 41/93/66 27/58/17
f 41/93/66 42/126/113 28/60/19
f 28/60/19 42/126/113 43/94/67
f 43/94/67 30/95/68 16/64/23
f 30/95/68 31/96/69 17/66/25
f 31/96/69 32/125/112 18/81/54
f 59/78/51 108/32/110 106/42/70
f 75/97/71 89/101/75 88/98/72
f 76/100/74 90/103/77 89/101/75
f 77/102/76 91/105/79 90/103/77
f 78/104/78 92/107/81 91/105/79
f 79/106/80 93/109/83 92/107/81
f 80/108/82 94/111/85 93/109/83
f 81/110/84 95/113/87 94/111/85
f 81/110/84 82/115/89 96/112/86
f 83/114/88 97/117/91 96/112/86
f 84/116/90 98/119/93 97/117/91
f 85/118/92 99/121/95 98/119/93
f 72/120/94 86/123/97 99/121/95
f 73/122/96 87/124/98 86/123/97
f 73/122/96 74/99/73 88/98/72
f 75/97/71 74/99/73 4/43/2
f 76/100/74 75/97/71 5/45/4
f 77/102/76 76/100/74 6/46/5
f 78/104/78 77/102/76 7/48/7
f 79/106/80 78/104/78 8/49/8
f 80/108/82 79/106/80 9/51/10
f 81/110/84 80/108/82 10/52/11
f 82/115/89 81/110/84 11/54/13
f 83/114/88 82/115/89 12/56/15
f 84/116/90 83/114/88 13/57/16
f 85/118/92 84/116/90 14/59/18
f 2/63/22 72/120/94 85/118/92
f 73/122/96 72/120/94 2/63/22
f 74/99/73 73/122/96 3/65/24
f 86/123/97 87/124/98 88/98/72
f 88/98/72 89/101/75 86/123/97
f 89/101/75 90/103/77 86/123/97
f 90/103/77 91/105/79 94/111/85
f 91/105/79 92/107/81 94/111/85
f 92/107/81 93/109/83 94/111/85
f 94/111/85 95/113/87 96/112/86
f 96/112/86 97/117/91 98/119/93
f 98/119/93 99/121/95 86/123/97
f 94/111/85 96/112/86 98/119/93
f 98/119/93 86/123/97 90/103/77
f 60/70/34 68/68/30 105/29/99
f 60/70/34 101/41/100 100/40/101
f 61/72/38 100/40/101 109/39/102
f 64/69/32 103/27/111 102/35/103
f 62/75/44 69/74/42 109/39/102
f 65/71/37 102/35/103 104/34/105
f 62/75/44 110/28/104 111/38/106
f 63/79/52 70/77/48 111/38/106
f 67/80/53 106/42/70 105/29/99
f 58/73/40 104/34/105 107/33/108
f 63/79/52 112/37/107 113/36/109
f 66/76/46 107/33/108 108/32/110
f 64/69/32 71/67/27 113/36/109
