# Blender v2.81 (sub 16) OBJ File: ''
# www.blender.org
o E44_Cube.003
v 0.298268 0.447385 -1.015000
v 0.352388 0.393266 -0.995000
v 0.298268 0.447385 -0.995000
v 0.352388 0.393266 -1.015000
v 0.352388 0.316727 -0.995000
v 0.352388 0.316727 -1.015000
v 0.298268 0.262608 -0.995000
v 0.298268 0.262608 -1.015000
v 0.221732 0.262608 -0.995000
v 0.221732 0.262608 -1.015000
v 0.167612 0.316727 -0.995000
v 0.167612 0.316727 -1.015000
v 0.167612 0.393266 -0.995000
v 0.213806 0.374131 -1.025000
v 0.167612 0.393266 -1.015000
v 0.221732 0.447385 -0.995000
v 0.221732 0.447385 -1.015000
v 0.279134 0.308804 -1.025000
v 0.306194 0.335862 -1.025000
v 0.240866 0.308804 -1.025000
v 0.240866 0.401193 -1.025000
v 0.213806 0.335862 -1.025000
v 0.279134 0.401193 -1.025000
v 0.306194 0.374131 -1.025000
v -0.221732 0.447385 -1.015000
v -0.167612 0.393266 -0.995000
v -0.221732 0.447385 -0.995000
v -0.167612 0.393266 -1.015000
v -0.167612 0.316727 -0.995000
v -0.167612 0.316727 -1.015000
v -0.221732 0.262608 -0.995000
v -0.221732 0.262608 -1.015000
v -0.298268 0.262608 -0.995000
v -0.298268 0.262608 -1.015000
v -0.352388 0.316727 -0.995000
v -0.352388 0.316727 -1.015000
v -0.352388 0.393266 -0.995000
v -0.306194 0.374131 -1.025000
v -0.352388 0.393266 -1.015000
v -0.298268 0.447385 -0.995000
v -0.298268 0.447385 -1.015000
v -0.240866 0.308804 -1.025000
v -0.213806 0.335862 -1.025000
v -0.279134 0.308804 -1.025000
v -0.279134 0.401193 -1.025000
v -0.306194 0.335862 -1.025000
v -0.240866 0.401193 -1.025000
v -0.213806 0.374131 -1.025000
v -0.380000 0.295000 -0.880000
v 0.380000 0.295000 -0.800000
v 0.380000 0.295000 -0.880000
v 0.380000 0.415000 -0.880000
v 0.380000 0.415000 -0.600000
v 0.380000 0.255000 -0.650000
v -0.380000 0.255000 -0.650000
v -0.380000 0.295000 -0.800000
v -0.380000 0.125000 -0.650000
v -0.380000 0.125000 -0.600000
v 0.380000 0.125000 -0.650000
v -0.380000 0.415000 -0.600000
v 0.380000 0.125000 -0.600000
v -0.380000 0.415000 -0.880000
v -0.028000 0.295000 -0.945000
v -0.060000 0.415000 -0.995000
v -0.060000 0.295000 -0.995000
v 0.028000 0.415000 -0.945000
v 0.060000 0.295000 -0.995000
v 0.060000 0.415000 -0.995000
v 0.028000 0.295000 -0.945000
v -0.060000 0.415000 -0.880000
v 0.060000 0.295000 -0.880000
v 0.060000 0.415000 -0.880000
v -0.028000 0.415000 -0.945000
v -0.060000 0.295000 -0.880000
v 0.265000 0.125000 0.600000
v 0.265000 0.415000 -0.600000
v 0.265000 0.125000 -0.600000
v -0.265000 0.125000 0.600000
v 0.265000 0.415000 0.600000
v -0.265000 0.125000 -0.600000
v -0.265000 0.415000 0.600000
v -0.265000 0.415000 -0.600000
v 0.290000 0.385000 -0.995000
v 0.290000 0.325000 -0.880000
v 0.290000 0.385000 -0.880000
v 0.230000 0.385000 -0.995000
v 0.230000 0.325000 -0.880000
v 0.230000 0.325000 -0.995000
v 0.290000 0.325000 -0.995000
v -0.230000 0.385000 -0.995000
v -0.230000 0.325000 -0.880000
v -0.230000 0.385000 -0.880000
v -0.290000 0.385000 -0.995000
v -0.290000 0.325000 -0.880000
v -0.290000 0.325000 -0.995000
v -0.230000 0.325000 -0.995000
v 0.230000 0.385000 -0.880000
v -0.290000 0.385000 -0.880000
vt 0.125000 0.124999
vt 0.125000 0.124999
vt 0.125000 0.124999
vt 0.125000 0.124999
vt 0.125000 0.124999
vt 0.125000 0.124999
vt 0.125000 0.124999
vt 0.125000 0.124999
vt 0.125000 0.124999
vt 0.125000 0.124999
vt 0.125000 0.124999
vt 0.125000 0.124999
vt 0.125000 0.124999
vt 0.125000 0.124999
vt 0.125000 0.124999
vt 0.125000 0.124999
vt 0.125000 0.124999
vt 0.125000 0.124999
vt 0.125000 0.124999
vt 0.125000 0.124999
vt 0.125000 0.124999
vt 0.125000 0.124999
vt 0.125000 0.124999
vt 0.125000 0.124999
vt 0.125000 0.124999
vt 0.125000 0.124999
vt 0.125000 0.124999
vt 0.125000 0.124999
vt 0.125000 0.124999
vt 0.125000 0.124999
vt 0.125000 0.124999
vt 0.125000 0.124999
vt 0.125000 0.124999
vt 0.125000 0.124999
vt 0.125000 0.124999
vt 0.125000 0.124999
vt 0.125000 0.124999
vt 0.125000 0.124999
vt 0.125000 0.124999
vt 0.125000 0.124999
vt 0.125000 0.124999
vt 0.125000 0.124999
vt 0.125000 0.124999
vt 0.125000 0.124999
vt 0.125000 0.124999
vt 0.125000 0.124999
vt 0.125000 0.124999
vt 0.125000 0.124999
vt 0.125000 0.124999
vt 0.125000 0.124999
vt 0.125000 0.124999
vt 0.125000 0.124999
vt 0.125000 0.124999
vt 0.125000 0.124999
vt 0.125000 0.124999
vt 0.125000 0.124999
vt 0.125000 0.124999
vt 0.125000 0.124999
vt 0.125000 0.124999
vt 0.125000 0.124999
vt 0.125000 0.124999
vt 0.125000 0.124999
vt 0.125000 0.124999
vt 0.125000 0.124999
vt 0.125000 0.124999
vt 0.125000 0.124999
vt 0.125000 0.124999
vt 0.125000 0.124999
vt 0.125000 0.124999
vt 0.125000 0.124999
vt 0.125000 0.124999
vt 0.125000 0.124999
vt 0.125000 0.124999
vt 0.125000 0.124999
vt 0.125000 0.124999
vt 0.125000 0.124999
vt 0.125000 0.124999
vt 0.125000 0.124999
vt 0.125000 0.124999
vt 0.125000 0.124999
vt 0.125000 0.124999
vt 0.125000 0.124999
vt 0.125000 0.124999
vt 0.125000 0.124999
vt 0.125000 0.124999
vt 0.125000 0.124999
vt 0.125000 0.124999
vt 0.125000 0.124999
vt 0.125000 0.124999
vt 0.125000 0.124999
vt 0.125000 0.124999
vt 0.125000 0.124999
vt 0.125000 0.124999
vt 0.125000 0.124999
vt 0.125000 0.124999
vt 0.125000 0.124999
vt 0.125000 0.124999
vt 0.125000 0.124999
vn 0.3827 0.9239 0.0000
vn 0.9239 0.3827 0.0000
vn 0.9239 -0.3827 0.0000
vn 0.3827 -0.9239 -0.0000
vn -0.3827 -0.9239 -0.0000
vn -0.7071 -0.7071 0.0000
vn -1.0000 0.0000 0.0000
vn -0.9239 0.3827 0.0000
vn -0.1812 -0.0750 -0.9806
vn -0.1812 0.0751 -0.9806
vn -0.1134 0.0470 -0.9924
vn -0.3827 0.9239 0.0000
vn 0.0000 0.0000 1.0000
vn 0.0470 -0.1134 -0.9924
vn 0.1134 -0.0470 -0.9924
vn 0.0750 -0.1812 -0.9806
vn -0.0750 -0.1812 -0.9806
vn -0.0470 -0.1134 -0.9924
vn -0.0751 0.1812 -0.9806
vn -0.0470 0.1135 -0.9924
vn 0.1812 0.0751 -0.9806
vn 0.1812 -0.0751 -0.9806
vn -0.1134 -0.0470 -0.9924
vn 0.0751 0.1812 -0.9806
vn 0.0470 0.1135 -0.9924
vn 0.1134 0.0470 -0.9924
vn -0.9239 -0.3827 0.0000
vn 0.0000 -1.0000 -0.0000
vn 1.0000 0.0000 0.0000
vn 0.0000 0.0000 -1.0000
vn 0.0000 -0.9662 -0.2577
vn 0.0000 1.0000 0.0000
vn 0.8423 0.0000 -0.5391
vn -0.8423 0.0000 -0.5391
s 1
f 1/1/1 3/2/1 2/3/2
f 4/4/2 2/3/2 5/5/3
f 6/6/3 5/5/3 7/7/4
f 8/8/4 7/7/4 9/9/5
f 10/10/5 9/9/5 11/11/6
f 12/12/7 11/11/7 13/13/8
f 12/12/9 15/14/10 14/15/11
f 15/14/8 13/13/8 16/16/12
f 17/17/12 16/16/12 3/2/1
f 11/11/13 16/16/13 13/13/13
f 18/18/14 14/15/11 19/19/15
f 8/8/16 10/10/17 20/20/18
f 15/14/10 17/17/19 21/21/20
f 4/4/21 6/6/22 19/19/15
f 10/10/17 12/12/9 22/22/23
f 17/17/19 1/1/24 23/23/25
f 4/4/21 24/24/26 23/23/25
f 8/8/16 18/18/14 19/19/15
f 25/25/1 27/26/1 26/27/2
f 28/28/2 26/27/2 29/29/3
f 30/30/3 29/29/3 31/31/4
f 32/32/4 31/31/4 33/33/5
f 34/34/5 33/33/5 35/35/27
f 36/36/27 35/35/27 37/37/8
f 36/36/9 39/38/10 38/39/11
f 39/38/8 37/37/8 40/40/12
f 41/41/12 40/40/12 27/26/1
f 35/35/13 40/40/13 37/37/13
f 42/42/14 38/39/11 43/43/15
f 34/34/17 44/44/18 42/42/14
f 39/38/10 41/41/19 45/45/20
f 28/28/21 30/30/22 43/43/15
f 34/34/17 36/36/9 46/46/23
f 41/41/19 25/25/24 47/47/25
f 28/28/21 48/48/26 47/47/25
f 32/32/16 42/42/14 43/43/15
f 49/49/28 51/50/28 50/51/28
f 51/50/29 52/52/29 50/51/29
f 53/53/29 54/54/29 50/51/29
f 52/52/29 53/53/29 50/51/29
f 52/52/30 51/50/30 49/49/30
f 55/55/31 56/56/31 50/51/31
f 57/57/30 55/55/30 54/54/30
f 58/58/28 57/57/28 59/59/28
f 60/60/13 58/58/13 61/61/13
f 61/61/29 59/59/29 54/54/29
f 54/54/29 53/53/29 61/61/29
f 57/57/7 58/58/7 55/55/7
f 58/58/7 60/60/7 55/55/7
f 55/55/7 60/60/7 56/56/7
f 49/49/7 56/56/7 62/62/7
f 60/60/7 62/62/7 56/56/7
f 53/53/32 52/52/32 62/62/32
f 63/63/33 65/64/33 64/65/33
f 66/66/34 68/67/34 67/68/34
f 66/66/30 69/69/30 63/63/30
f 70/70/7 64/65/7 65/64/7
f 71/71/29 67/68/29 68/67/29
f 68/67/32 66/66/32 72/72/32
f 64/65/32 70/70/32 73/73/32
f 66/66/32 73/73/32 70/70/32
f 69/69/28 71/71/28 74/74/28
f 67/68/28 71/71/28 69/69/28
f 65/64/28 63/63/28 74/74/28
f 75/75/29 77/76/29 76/77/29
f 78/78/13 75/75/13 79/79/13
f 80/80/7 78/78/7 81/81/7
f 77/76/28 75/75/28 78/78/28
f 82/82/32 81/81/32 79/79/32
f 49/49/28 50/51/28 56/56/28
f 52/52/30 49/49/30 62/62/30
f 55/55/31 50/51/31 54/54/31
f 57/57/30 54/54/30 59/59/30
f 58/58/28 59/59/28 61/61/28
f 60/60/13 61/61/13 53/53/13
f 53/53/32 62/62/32 60/60/32
f 63/63/33 64/65/33 73/73/33
f 66/66/34 67/68/34 69/69/34
f 66/66/30 63/63/30 73/73/30
f 70/70/7 65/64/7 74/74/7
f 71/71/29 68/67/29 72/72/29
f 66/66/32 70/70/32 72/72/32
f 69/69/28 74/74/28 63/63/28
f 75/75/29 76/77/29 79/79/29
f 78/78/13 79/79/13 81/81/13
f 80/80/7 81/81/7 82/82/7
f 77/76/28 78/78/28 80/80/28
f 82/82/32 79/79/32 76/77/32
f 1/1/1 2/3/2 4/4/2
f 4/4/2 5/5/3 6/6/3
f 6/6/3 7/7/4 8/8/4
f 8/8/4 9/9/5 10/10/5
f 10/10/5 11/11/6 12/12/6
f 12/12/7 13/13/8 15/14/8
f 12/12/9 14/15/11 22/22/23
f 15/14/8 16/16/12 17/17/12
f 17/17/12 3/2/1 1/1/1
f 16/16/13 7/7/13 3/2/13
f 3/2/13 7/7/13 2/3/13
f 2/3/13 7/7/13 5/5/13
f 7/7/13 16/16/13 9/9/13
f 9/9/13 16/16/13 11/11/13
f 19/19/15 14/15/11 24/24/26
f 24/24/26 14/15/11 23/23/25
f 23/23/25 14/15/11 21/21/20
f 14/15/11 20/20/18 22/22/23
f 20/20/18 14/15/11 18/18/14
f 8/8/16 20/20/18 18/18/14
f 15/14/10 21/21/20 14/15/11
f 4/4/21 19/19/15 24/24/26
f 10/10/17 22/22/23 20/20/18
f 17/17/19 23/23/25 21/21/20
f 4/4/21 23/23/25 1/1/24
f 8/8/16 19/19/15 6/6/22
f 25/25/1 26/27/2 28/28/2
f 28/28/2 29/29/3 30/30/3
f 30/30/3 31/31/4 32/32/4
f 32/32/4 33/33/5 34/34/5
f 34/34/5 35/35/27 36/36/27
f 36/36/27 37/37/8 39/38/8
f 36/36/9 38/39/11 46/46/23
f 39/38/8 40/40/12 41/41/12
f 41/41/12 27/26/1 25/25/1
f 40/40/13 31/31/13 27/26/13
f 27/26/13 31/31/13 26/27/13
f 26/27/13 31/31/13 29/29/13
f 31/31/13 40/40/13 33/33/13
f 33/33/13 40/40/13 35/35/13
f 43/43/15 38/39/11 48/48/26
f 48/48/26 38/39/11 47/47/25
f 47/47/25 38/39/11 45/45/20
f 38/39/11 44/44/18 46/46/23
f 44/44/18 38/39/11 42/42/14
f 34/34/17 42/42/14 32/32/16
f 39/38/10 45/45/20 38/39/11
f 28/28/21 43/43/15 48/48/26
f 34/34/17 46/46/23 44/44/18
f 41/41/19 47/47/25 45/45/20
f 28/28/21 47/47/25 25/25/24
f 32/32/16 43/43/15 30/30/22
f 83/83/29 85/84/29 84/85/29
f 86/86/7 88/87/7 87/88/7
f 85/84/32 83/83/32 86/86/32
f 87/88/28 88/87/28 89/89/28
f 90/90/29 92/91/29 91/92/29
f 93/93/7 95/94/7 94/95/7
f 92/91/32 90/90/32 93/93/32
f 94/95/28 95/94/28 96/96/28
f 83/83/29 84/85/29 89/89/29
f 86/86/7 87/88/7 97/97/7
f 85/84/32 86/86/32 97/97/32
f 87/88/28 89/89/28 84/85/28
f 90/90/29 91/92/29 96/96/29
f 93/93/7 94/95/7 98/98/7
f 92/91/32 93/93/32 98/98/32
f 94/95/28 96/96/28 91/92/28
